<?xml version="1.0" encoding="utf-8"?>
<!-- Generator: Adobe Illustrator 22.0.0, SVG Export Plug-In . SVG Version: 6.00 Build 0)  -->
<svg version="1.1" id="Layer_5" xmlns="http://www.w3.org/2000/svg" xmlns:xlink="http://www.w3.org/1999/xlink" x="0px" y="0px"
	 viewBox="0 0 512 512" style="enable-background:new 0 0 512 512;" xml:space="preserve">
<style type="text/css">
	.st0{fill:#F9BA48;}
	.st1{fill:#505050;}
</style>
<path class="st0" d="M448,368h-16c-13.2,0-24-10.8-24-24v-24h64v24C472,357.2,461.2,368,448,368z"/>
<path class="st1" d="M384.4,136c-27.8,0-54.3,13.4-70.8,35.8l-86,116.7l-47.2,6.3c-25.1,3.4-46.6,17.3-60.4,36.9V139.8
	c19.8-13.3,32-35.8,32-59.8c0-26-13.8-50.1-36-62.9l-9.7-5.6l-9.5,47.7L80,70.4L63.2,59.2l-9.5-47.7L44,17.1C21.8,29.9,8,54,8,80
	c0,24,12.2,46.5,32,59.8v201c-19.8,13.3-32,35.8-32,59.8c0,26,13.8,50.1,36,62.9l9.7,5.6l9.5-47.7L80,410.2l12.2,8.2
	C89.6,422.3,88,427,88,432v16c0,13.2,10.8,24,24,24h72.6v-16H112c-4.4,0-8-3.6-8-8v-16c0-4.4,3.6-8,8-8h66.1v-16H120v-24v-2
	c0-4.1,0.4-8.2,1.1-12.1c7,3.9,14.8,6.1,22.9,6.1c26.5,0,48-21.5,48-48c0-6.3-1.4-12.4-3.8-18.1l48.2-6.4l90-122.2
	c13.5-18.3,35.2-29.3,58-29.3H488v16h-99.7c-15.2,0-29.7,7.3-38.7,19.6l-41,56C287.2,251.5,272,272,272,296v8v78h16v-78h32h16h152
	v152H295.4v16H504V136L384.4,136z M104,407l-24-16l-31.2,20.8l-6.2,31C30.9,432.2,24,416.9,24,400.6c0-19.9,10.7-38.4,28-48.4l4-2.3
	V130.8l-4-2.3c-17.3-10-28-28.6-28-48.4c0-16.3,6.9-31.6,18.6-42.2l6.2,31L80,89.6l31.2-20.8l6.2-31C129.1,48.4,136,63.7,136,80
	c0,19.9-10.7,38.4-28,48.4l-4,2.3V382v2L104,407z M144,360c-6.6,0-12.9-2.1-18.3-5.9c8.4-19.7,25.3-35.1,46.3-41.2
	c2.6,4.7,3.9,9.8,3.9,15.1C176,345.6,161.6,360,144,360L144,360z M320,288h-31.2c3.7-18.2,19.9-32,39.2-32h8c8.8,0,16,7.2,16,16
	s-7.2,16-16,16H320z M363.6,288c2.8-4.7,4.4-10.1,4.4-16c0-17.6-14.4-32-32-32h-5l31.5-42.9c6-8.2,15.7-13.1,25.8-13.1H488v104
	H363.6z"/>
<path class="st0" d="M276.7,176c-5.1,0-10.1-2.1-13.7-5.7L228.7,136H208c-22.1,0-40-17.9-40-40V48c0-22.1,17.9-40,40-40h112
	c22.1,0,40,17.9,40,40v48c0,22.1-17.9,40-40,40h-24v20.7C296,167.3,287.3,176,276.7,176z"/>
<path class="st1" d="M248,115.3l-29.7-29.7l11.3-11.3L248,92.7l58.3-58.3l11.3,11.3L248,115.3z"/>
<path class="st1" d="M72,128h16v16H72V128z"/>
<path class="st1" d="M72,160h16v16H72V160z"/>
<path class="st1" d="M72,192h16v16H72V192z"/>
<path class="st1" d="M328,424h16v16h-16V424z"/>
<path class="st0" d="M240,504c-39.7,0-72-32.3-72-72s32.3-72,72-72s72,32.3,72,72S279.7,504,240,504z M240,400
	c-17.6,0-32,14.4-32,32s14.4,32,32,32s32-14.4,32-32S257.6,400,240,400z"/>
<path class="st1" d="M240,472c-22.1,0-40-17.9-40-40s17.9-40,40-40s40,17.9,40,40S262.1,472,240,472z M240,408
	c-13.2,0-24,10.8-24,24s10.8,24,24,24s24-10.8,24-24S253.2,408,240,408z"/>
<path class="st1" d="M360,424h16v16h-16V424z"/>
<path class="st1" d="M392,424h16v16h-16V424z"/>
</svg>
