<?xml version="1.0" encoding="iso-8859-1"?>
<!-- Generator: Adobe Illustrator 19.0.0, SVG Export Plug-In . SVG Version: 6.00 Build 0)  -->
<svg version="1.1" id="Capa_1" xmlns="http://www.w3.org/2000/svg" xmlns:xlink="http://www.w3.org/1999/xlink" x="0px" y="0px"
	 viewBox="0 0 512 512" style="enable-background:new 0 0 512 512;" xml:space="preserve">
<g>
	<g>
		<path d="M256,0C114.844,0,0,114.844,0,256s114.844,256,256,256s256-114.844,256-256S397.156,0,256,0z M256,42.667
			c11.76,0,21.333,9.573,21.333,21.333S267.76,85.333,256,85.333S234.667,75.76,234.667,64S244.24,42.667,256,42.667z M64,277.333
			c-11.76,0-21.333-9.573-21.333-21.333S52.24,234.667,64,234.667S85.333,244.24,85.333,256S75.76,277.333,64,277.333z M256,469.333
			c-11.76,0-21.333-9.573-21.333-21.333c0-11.76,9.573-21.333,21.333-21.333s21.333,9.573,21.333,21.333
			C277.333,459.76,267.76,469.333,256,469.333z M359.542,359.542c-2.083,2.083-4.813,3.125-7.542,3.125
			c-2.729,0-5.458-1.042-7.542-3.125l-83.26-83.26c-1.707,0.441-3.355,1.052-5.198,1.052c-11.76,0-21.333-9.573-21.333-21.333
			c0-11.049,8.552-19.865,19.328-20.927L321,91.49c2.5-5.323,8.854-7.604,14.177-5.156c5.344,2.49,7.646,8.844,5.156,14.177
			L273.28,244.189c2.355,3.43,4.053,7.346,4.053,11.811c0,1.842-0.611,3.491-1.052,5.198l83.26,83.26
			C363.708,348.625,363.708,355.375,359.542,359.542z M448,277.333c-11.76,0-21.333-9.573-21.333-21.333s9.573-21.333,21.333-21.333
			c11.76,0,21.333,9.573,21.333,21.333S459.76,277.333,448,277.333z"/>
	</g>
</g>
<g>
</g>
<g>
</g>
<g>
</g>
<g>
</g>
<g>
</g>
<g>
</g>
<g>
</g>
<g>
</g>
<g>
</g>
<g>
</g>
<g>
</g>
<g>
</g>
<g>
</g>
<g>
</g>
<g>
</g>
</svg>
