<?xml version="1.0" encoding="iso-8859-1"?>
<!-- Generator: Adobe Illustrator 19.0.0, SVG Export Plug-In . SVG Version: 6.00 Build 0)  -->
<svg version="1.1" id="Capa_1" xmlns="http://www.w3.org/2000/svg" xmlns:xlink="http://www.w3.org/1999/xlink" x="0px" y="0px"
	 viewBox="0 0 512 512" style="enable-background:new 0 0 512 512;" xml:space="preserve">
<g>
	<g>
		<path d="M257,0C117.105,0,0,113.025,0,255c0,140.644,115.914,257,257,257c142.13,0,255-117.257,255-257C512,114.06,397.95,0,257,0
			z M257,482.2C131.832,482.2,29.8,380.168,29.8,255C29.8,130.935,131.832,29.8,257,29.8c124.065,0,225.2,101.035,225.2,225.1
			C482.2,380.068,381.065,482.2,257,482.2z"/>
	</g>
</g>
<g>
	<g>
		<path d="M257,90c-90.841,0-167,73.672-167,165c0,91.215,75.918,167,167,167c91.444,0,165-76.255,165-167
			C422,164.323,348.287,90,257,90z M391.162,240h-60.671c-1.949-9.562-5.731-18.46-10.948-26.33l42.887-42.886
			C377.976,190.208,388.275,214,391.162,240z M272,120.839c26,2.887,49.792,13.186,69.216,28.733l-42.886,42.886
			c-7.869-5.218-16.768-9-26.33-10.948V120.839z M242,120.812v60.712c-9.845,1.995-19.32,5.918-27.774,11.488l-43.109-43.109
			C190.96,134.126,215.341,123.686,242,120.812z M149.812,171.025l42.988,42.988c-5.445,7.943-9.247,16.731-11.219,25.987H120.85
			C123.768,214.108,134.144,190.404,149.812,171.025z M120.868,270h60.739c2.064,9.673,6.078,19.016,11.778,27.403l-42.772,42.772
			C134.583,320.343,123.867,296.151,120.868,270z M242,391.133c-26.151-3-50.343-13.716-70.175-29.745l42.772-42.772
			c8.387,5.7,17.729,9.714,27.403,11.778V391.133z M209.8,255c0-24.393,21.723-45.2,47.2-45.2c12.392,0,23.629,5.236,31.775,13.367
			c0.01,0.01,0.018,0.021,0.027,0.03c0.009,0.009,0.02,0.018,0.03,0.027c8.131,8.146,13.367,19.284,13.367,31.675
			C302.2,280.377,281.393,302.2,257,302.2C232.402,302.2,209.8,279.598,209.8,255z M272,391.15v-60.731
			c9.256-1.972,18.044-5.774,25.987-11.219l42.988,42.988C321.596,377.856,297.892,388.232,272,391.15z M362.096,340.783
			l-43.109-43.109c5.57-8.454,9.493-17.929,11.488-27.774h60.712C388.313,296.559,377.873,320.94,362.096,340.783z"/>
	</g>
</g>
<g>
	<g>
		<path d="M257,225c-16.542,0-30,13.458-30,30s13.458,30,30,30s30-13.458,30-30S273.542,225,257,225z"/>
	</g>
</g>
<g>
</g>
<g>
</g>
<g>
</g>
<g>
</g>
<g>
</g>
<g>
</g>
<g>
</g>
<g>
</g>
<g>
</g>
<g>
</g>
<g>
</g>
<g>
</g>
<g>
</g>
<g>
</g>
<g>
</g>
</svg>
