<?xml version="1.0" encoding="iso-8859-1"?>
<!-- Generator: Adobe Illustrator 19.0.0, SVG Export Plug-In . SVG Version: 6.00 Build 0)  -->
<svg version="1.1" id="Capa_1" xmlns="http://www.w3.org/2000/svg" xmlns:xlink="http://www.w3.org/1999/xlink" x="0px" y="0px"
	 viewBox="0 0 512 512" style="enable-background:new 0 0 512 512;" xml:space="preserve">
<g>
	<g>
		<path d="M437,181c-8.284,0-15,6.716-15,15v15h-30v-15c0-8.284-6.716-15-15-15h-23.787l-25.607-25.607
			C324.793,152.58,320.979,151,317,151h-15v-30h15c8.284,0,15-6.716,15-15s-6.716-15-15-15H165c-8.284,0-15,6.716-15,15
			s6.716,15,15,15h15v30h-15c-3.979,0-7.793,1.58-10.606,4.393L128.787,181H75c-8.284,0-15,6.716-15,15v60H30v-60
			c0-8.284-6.716-15-15-15s-15,6.716-15,15v150c0,8.284,6.716,15,15,15s15-6.716,15-15v-60h30v60c0,8.284,6.716,15,15,15h53.787
			l55.607,55.607C187.207,419.42,191.021,421,195,421h152c5.682,0,10.875-3.21,13.417-8.292L386.271,361H422v15
			c0,8.284,6.716,15,15,15c41.355,0,75-33.645,75-75v-60C512,214.645,478.355,181,437,181z M120,331H90V211h30V331z M210,121h62v30
			h-62V121z M362,342.459L337.729,391H201.213L150,339.787V202.213L171.213,181c6.101,0,134.194,0,139.573,0l25.607,25.607
			C339.207,209.42,343.021,211,347,211h15C362,217.133,362,337.577,362,342.459z M422,331h-30v-90h30V331z M482,316
			c0,19.556-12.539,36.239-30,42.43c0-10.534,0-140.888,0-144.859c17.461,6.191,30,22.873,30,42.43V316z"/>
	</g>
</g>
<g>
	<g>
		<path d="M287,271h-35.729l19.146-38.292c3.705-7.41,0.701-16.42-6.708-20.125c-7.41-3.705-16.42-0.701-20.125,6.708l-30,60
			C208.609,289.241,215.851,301,227,301h35.729l-19.146,38.292c-3.705,7.41-0.701,16.42,6.708,20.125
			c7.413,3.706,16.422,0.698,20.125-6.708l30-60C305.391,282.759,298.149,271,287,271z"/>
	</g>
</g>
<g>
</g>
<g>
</g>
<g>
</g>
<g>
</g>
<g>
</g>
<g>
</g>
<g>
</g>
<g>
</g>
<g>
</g>
<g>
</g>
<g>
</g>
<g>
</g>
<g>
</g>
<g>
</g>
<g>
</g>
</svg>
