<?xml version="1.0" encoding="utf-8"?>
<!-- Generator: Adobe Illustrator 22.0.0, SVG Export Plug-In . SVG Version: 6.00 Build 0)  -->
<svg version="1.1" id="Layer_1" xmlns="http://www.w3.org/2000/svg" xmlns:xlink="http://www.w3.org/1999/xlink" x="0px" y="0px"
	 viewBox="0 0 496 496" style="enable-background:new 0 0 496 496;" xml:space="preserve">
<style type="text/css">
	.st0{fill:#505050;}
	.st1{fill:#F9BA48;}
</style>
<path class="st0" d="M441.4,40c-8.2,0-15.9,3.2-21.7,9l-143,143h-35.1l-17.4,78.3l15.6,3.5l14.6-65.7h19.2l14.6,65.7l15.6-3.5
	l-3.4-15.4L456,99.3V168h16V70.6C472,53.7,458.3,40,441.4,40z M296.3,236.4l-7.5-33.9L431,60.3c2.8-2.8,6.4-4.3,10.3-4.3
	c8.1,0,14.6,6.6,14.6,14.6v6.1L296.3,236.4z"/>
<path class="st1" d="M208,264h112v56H208V264z"/>
<path class="st0" d="M181.2,408h165.6v16H181.2V408z"/>
<path class="st0" d="M192,312V208c0-22.1-17.9-40-40-40H74.2c-19,0-35.5,13.5-39.2,32.2l-10.2,51l-7,4.7C6.7,263.3,0,275.7,0,289.1
	V400c0,13.2,10.8,24,24,24h66.8v-16H24c-4.4,0-8-3.6-8-8v-8h74.7v-16H64V272h65.9l16-8H176v32h-32v16h32v72h5.2v8h165.6v-16H192v-48
	h288v48h-42.8v16H480v8c0,4.4-3.6,8-8,8h-34.8v16H472c13.2,0,24-10.8,24-24v-88H192z M16,376v-86.9c0-8,4-15.5,10.7-20l12.5-8.3
	l11.5-57.5c2.2-11.2,12.1-19.3,23.5-19.3H152c10.4,0,19.2,6.7,22.5,16H78c-7.1,0-13.4,4.8-15.4,11.6l-14.3,50.2L48,376H16z
	 M142.1,248l-16,8H66.6L78,216h98v32H142.1z"/>
<path class="st1" d="M136,456c-30.9,0-56-25.1-56-56s25.1-56,56-56s56,25.1,56,56S166.9,456,136,456z M136,384c-8.8,0-16,7.2-16,16
	s7.2,16,16,16s16-7.2,16-16S144.8,384,136,384z"/>
<path class="st0" d="M136,424c-13.2,0-24-10.8-24-24s10.8-24,24-24s24,10.8,24,24S149.2,424,136,424z M136,392c-4.4,0-8,3.6-8,8
	s3.6,8,8,8s8-3.6,8-8S140.4,392,136,392z"/>
<path class="st1" d="M392,456c-30.9,0-56-25.1-56-56s25.1-56,56-56s56,25.1,56,56S422.9,456,392,456z M392,384c-8.8,0-16,7.2-16,16
	s7.2,16,16,16s16-7.2,16-16S400.8,384,392,384z"/>
<path class="st0" d="M392,424c-13.2,0-24-10.8-24-24s10.8-24,24-24s24,10.8,24,24S405.2,424,392,424z M392,392c-4.4,0-8,3.6-8,8
	s3.6,8,8,8s8-3.6,8-8S396.4,392,392,392z"/>
<path class="st0" d="M457.4,296h-2.7c-16.9,0-30.6-13.7-30.6-30.6V256h16v9.4c0,8.1,6.6,14.6,14.6,14.6h2.7
	c8.1,0,14.6-6.6,14.6-14.6c0-3.9-1.5-7.6-4.3-10.3L456,243.3V216h16v20.7l7,7c5.8,5.8,9,13.5,9,21.7C488,282.3,474.3,296,457.4,296z
	"/>
<path class="st1" d="M464,224c-17.6,0-32-14.4-32-32s14.4-32,32-32s32,14.4,32,32S481.6,224,464,224z"/>
<path class="st0" d="M208,344h16v16h-16V344z"/>
<path class="st0" d="M240,344h16v16h-16V344z"/>
<path class="st0" d="M272,344h16v16h-16V344z"/>
</svg>
