<?xml version="1.0" encoding="iso-8859-1"?>
<!-- Generator: Adobe Illustrator 19.0.0, SVG Export Plug-In . SVG Version: 6.00 Build 0)  -->
<svg version="1.1" id="Capa_1" xmlns="http://www.w3.org/2000/svg" xmlns:xlink="http://www.w3.org/1999/xlink" x="0px" y="0px"
	 viewBox="0 0 512 512" style="enable-background:new 0 0 512 512;" xml:space="preserve">
<g>
	<g>
		<path d="M406,0h-90c-41.355,0-75,33.645-75,75c0,8.271-6.729,15-15,15h-16V76.765c2.113-25.268-19.993-45.698-45-45.698h-30
			c-23.37,0-42.261,18.263-44.917,43.425C90.027,75.015,90,75.541,90,76.066v15.669C56.309,99.088,31,129.137,31,165v272
			c0,41.355,33.645,75,75,75h300c41.355,0,75-33.645,75-75V75C481,33.645,447.355,0,406,0z M120,76.948
			c1.071-8.017,6.048-16.082,15-16.082h30c7.811,0,16.058,6.273,15.283,13.625C180.169,75.564,180.2,74.916,180.2,90H120V76.948z
			 M451,437c0,24.813-20.187,45-45,45H106c-24.813,0-45-20.187-45-45V165c0-24.813,20.187-45,45-45h120c24.813,0,45-20.187,45-45
			s20.187-45,45-45h90c24.813,0,45,20.187,45,45V437z"/>
	</g>
</g>
<g>
	<g>
		<path d="M405,61.066h-90c-8.284,0-15,6.716-15,15v60c0,8.285,6.716,15,15,15h90c8.284,0,15-6.716,15-15v-60
			C420,67.782,413.284,61.066,405,61.066z M390,121.066h-60v-30.2h60V121.066z"/>
	</g>
</g>
<g>
	<g>
		<path d="M415.07,425.586L330,368.873V265.26l85.069-56.713c6.894-4.596,8.756-13.909,4.16-20.801
			c-4.595-6.893-13.908-8.755-20.801-4.161l-86.221,57.481c-126.555,0-118.01-0.121-120.082,0.282l-76.376-57.282
			c-6.627-4.971-16.029-3.626-21,3c-4.971,6.627-3.627,16.029,3,21L180,269.755v94.624l-82.251,61.688
			c-6.627,4.971-7.971,14.373-3,21s14.371,7.971,21,3l76.377-57.482c2.122,0.413-6.009,0.282,120.082,0.282l86.221,57.681
			c6.897,4.597,16.209,2.729,20.801-4.161C423.826,439.494,421.963,430.181,415.07,425.586z M300,363.066h-90v-92.2h90V363.066z"/>
	</g>
</g>
<g>
</g>
<g>
</g>
<g>
</g>
<g>
</g>
<g>
</g>
<g>
</g>
<g>
</g>
<g>
</g>
<g>
</g>
<g>
</g>
<g>
</g>
<g>
</g>
<g>
</g>
<g>
</g>
<g>
</g>
</svg>
