<?xml version="1.0" encoding="utf-8"?>
<!-- Generator: Adobe Illustrator 22.0.0, SVG Export Plug-In . SVG Version: 6.00 Build 0)  -->
<svg version="1.1" id="Layer_6" xmlns="http://www.w3.org/2000/svg" xmlns:xlink="http://www.w3.org/1999/xlink" x="0px" y="0px"
	 viewBox="0 0 512 512" style="enable-background:new 0 0 512 512;" xml:space="preserve">
<style type="text/css">
	.st0{fill:#F9BA48;}
	.st1{fill:#505050;}
</style>
<g>
	<g>
		<g>
			<path class="st0" d="M128,232c-6.5,0-12.9-1.2-18.9-3.4C63.3,211.3,40,193.6,40,176c0-24.4,15.5-109.8,16.1-113.4l1.2-6.6h17.8
				c17.3,0,34-5.1,48.4-14.7l4.4-3l4.4,3c14.4,9.6,31.1,14.7,48.4,14.7h17.8l1.2,6.6c0.7,3.6,16.1,89,16.1,113.4
				c0,17.6-23.3,35.3-69.1,52.6C140.9,230.8,134.5,232,128,232L128,232z"/>
		</g>
	</g>
	<g>
		<g>
			<path class="st0" d="M408,504c-26.5,0-48-21.5-48-48s21.5-48,48-48s48,21.5,48,48S434.5,504,408,504z"/>
		</g>
	</g>
	<g>
		<g>
			<path class="st0" d="M248,504c-26.5,0-48-21.5-48-48s21.5-48,48-48s48,21.5,48,48S274.5,504,248,504z"/>
		</g>
	</g>
	<g>
		<path class="st0" d="M40,352h96v64H40V352z"/>
	</g>
	<g>
		<path class="st1" d="M181.7,117.7l-11.3-11.3L112,164.7l-18.3-18.3l-11.3,11.3l29.7,29.7L181.7,117.7z"/>
		<path class="st1" d="M293.2,440h69.6c2.1-6,5.4-11.4,9.5-16h-88.6C287.8,428.6,291.1,434,293.2,440L293.2,440z"/>
		<path class="st1" d="M296,456c0,5.6-1,11-2.8,16h69.6c-1.8-5-2.8-10.4-2.8-16H296z"/>
		<path class="st1" d="M481.7,286.3c-14.4-14.4-33.6-22.3-53.9-22.3H376V32c0-13.2-10.8-24-24-24H32C18.8,8,8,18.8,8,32v400
			c0,13.2,10.8,24,24,24h128.2c7.3,9.7,18.8,16,31.8,16h10.8c-1.8-5-2.8-10.4-2.8-16h-8c-10.4,0-19.2-6.7-22.5-16h33.3
			c2.1-6,5.4-11.4,9.5-16H168v-16h16c17.6,0,32-14.4,32-32v-13.8l16-4v-18c0-33.2,27-60.3,60.3-60.3h135.4
			c16.1,0,31.2,6.3,42.6,17.7c11.4,11.4,17.6,26.5,17.6,42.6V424h-44.3c4.2,4.6,7.4,10,9.5,16h33.3c-3.3,9.3-12.1,16-22.5,16h-8
			c0,5.6-1,11-2.8,16H464c22.1,0,40-17.9,40-40v-91.7C504,319.9,496.1,300.8,481.7,286.3z M296,72v51.1l-16,8V24h16v32h16V24h16
			v107.1l-16-8V72H296z M200,376c0,8.8-7.2,16-16,16h-15.9c0.4-10.6,7.7-19.7,18.1-22.3l13.8-3.5V376z M216,340.3v5.5l-33.7,8.4
			c-17.8,4.5-30.3,20.4-30.3,38.8v39c0,2.7,0.3,5.4,0.8,8H32c-4.4,0-8-3.6-8-8V32c0-4.4,3.6-8,8-8h232v132.9l40-20l40,20V24h8
			c4.4,0,8,3.6,8,8v232h-67.7C250.2,264,216,298.2,216,340.3z"/>
		<path class="st1" d="M472,344c0-26.5-21.5-48-48-48H296c-26.5,0-48,21.5-48,48v32h224V344z M264,344c0-17.6,14.4-32,32-32h32v48
			h-64V344z M456,360H344v-48h80c17.6,0,32,14.4,32,32V360z"/>
		<path class="st1" d="M40,328h160v-64H40V328z M56,280h128v32H56V280z"/>
		<path class="st1" d="M40,344h96v16H40V344z"/>
		<path class="st1" d="M40,376h96v16H40V376z"/>
		<path class="st1" d="M40,408h96v16H40V408z"/>
		<path class="st1" d="M304,168c-22.1,0-40,17.9-40,40s17.9,40,40,40s40-17.9,40-40S326.1,168,304,168z M304,232
			c-13.2,0-24-10.8-24-24s10.8-24,24-24s24,10.8,24,24S317.2,232,304,232z"/>
	</g>
</g>
</svg>
