<?xml version="1.0" encoding="utf-8"?>
<!-- Generator: Adobe Illustrator 22.0.0, SVG Export Plug-In . SVG Version: 6.00 Build 0)  -->
<svg version="1.1" id="Layer_35" xmlns="http://www.w3.org/2000/svg" xmlns:xlink="http://www.w3.org/1999/xlink" x="0px" y="0px"
	 viewBox="0 0 512 512" style="enable-background:new 0 0 512 512;" xml:space="preserve">
<style type="text/css">
	.st0{fill:#F9BA48;}
	.st1{fill:#505050;}
</style>
<path class="st0" d="M366.7,376.2L352,472l24,24l24-24l-13.5-87.7L366.7,376.2z"/>
<path class="st0" d="M348,48.7l-4.4-4.4C320.2,20.9,289.1,8,256,8h-12.1C175.6,8,120,63.6,120,131.9V216h9.1c-0.7-2.6-1.1-5.2-1.1-8
	c0-17.7,14.3-32,32-32v-32l14.6-3.7c11-2.8,20.3-10.2,25.4-20.3h112c5.1,10.2,14.3,17.6,25.4,20.3L352,144v32c17.7,0,32,14.3,32,32
	c0,2.8-0.5,5.4-1.1,8h9.1V104.8C392,78.2,373.6,55,348,48.7L348,48.7z"/>
<path class="st1" d="M288,256h-16c0,8.8-7.2,16-16,16s-16-7.2-16-16h-16c0,17.6,14.4,32,32,32S288,273.6,288,256z"/>
<path class="st1" d="M393,378.3l-82.1-33.6c-9.1-3.7-14.9-12.4-14.9-22.2v-5.7c24.6-17,43.4-41,54.1-68.8h1.9c22.1,0,40-17.9,40-40
	c0-19.3-13.8-35.5-32-39.2v-31.1l-20.7-5.2c-8.8-2.2-16.1-8.1-20.1-16.2l-2.2-4.4H195.1l-2.2,4.4c-4,8.1-11.4,14-20.1,16.2
	l-20.7,5.2v31.1c-18.2,3.7-32,19.9-32,39.2c0,22.1,17.9,40,40,40h1.9c10.7,27.8,29.5,51.8,54.1,68.8v5.7c0,9.8-5.8,18.5-14.9,22.2
	L119,378.3C71,397.9,40,444.1,40,496v8h432v-8C472,444.1,441,397.9,393,378.3L393,378.3z M376,208c0,12.1-9,22-20.7,23.7
	c3-11.9,4.7-24.2,4.7-36.9v-9.3C369.3,188.8,376,197.6,376,208z M176.6,148.1c11.6-2.9,21.6-10.1,28.1-20.1h102.7
	c6.4,10,16.4,17.2,28.1,20.1l8.6,2.1v9.8h-80v16h-16v-16h-80v-9.8L176.6,148.1z M328,176v16c0,8.8-7.2,16-16,16h-16
	c-8.8,0-16-7.2-16-16v-16H328z M232,176v16c0,8.8-7.2,16-16,16h-16c-8.8,0-16-7.2-16-16v-16H232z M136,208c0-10.4,6.7-19.2,16-22.5
	v9.3c0,12.7,1.7,25,4.7,36.9C145,230,136,220.1,136,208z M168,194.8V192c0,17.6,14.4,32,32,32h16c17.6,0,32-14.4,32-32h16
	c0,17.6,14.4,32,32,32h16c17.6,0,32-14.4,32-32v2.8c0,56.2-35.2,106-88,124.7C203.2,300.8,168,251,168,194.8z M253.5,335.6l2.5,0.8
	l2.5-0.8c7.6-2.5,14.8-5.6,21.8-9.2c0.8,8,3.8,15.3,8.7,21.3l-33,33l-33-33c4.9-6,8-13.4,8.7-21.3
	C238.6,330,245.9,333.1,253.5,335.6L253.5,335.6z M207.2,359.5c1.2-0.5,2.3-1.1,3.4-1.7l45.5,45.5l45.5-45.5
	c1.1,0.6,2.2,1.2,3.4,1.7l18,7.4L259.2,488h-6.3l-63.7-121.1L207.2,359.5z M228.1,475.4l-98.8-84l44.9-18.4L228.1,475.4z
	 M113.3,398.8L218.2,488H136v-48h-16v48H56.3C59,450.3,80.4,417,113.3,398.8L113.3,398.8z M293.8,488l64.2-54.5l3.7-24.2l-77.8,66.1
	L337.8,373l49.2,20.1c39.5,16.1,65.8,52.8,68.8,94.9H293.8z"/>
<path class="st1" d="M179.8,100l-13.8-8c-3.2,5.5-5.9,11.3-8,17.3l15.1,5.3C174.8,109.6,177.1,104.7,179.8,100z"/>
<path class="st1" d="M256,56V40c-29.5,0-57.8,12.6-77.5,34.7l11.9,10.7C207.1,66.7,231,56,256,56z"/>
</svg>
