<?xml version="1.0" encoding="utf-8"?>
<!-- Generator: Adobe Illustrator 22.0.0, SVG Export Plug-In . SVG Version: 6.00 Build 0)  -->
<svg version="1.1" id="Layer_1" xmlns="http://www.w3.org/2000/svg" xmlns:xlink="http://www.w3.org/1999/xlink" x="0px" y="0px"
	 viewBox="0 0 496 496" style="enable-background:new 0 0 496 496;" xml:space="preserve">
<style type="text/css">
	.st0{fill:#F9BA48;}
	.st1{fill:#505050;}
</style>
<path class="st0" d="M104,208c7.7,0,15.3-0.9,22.8-2.5l0.9-2.1c5-11.8,16.6-19.4,29.4-19.4h13.2c23.7-19.7,37.7-48.8,37.7-80
	C208,46.7,161.3,0,104,0S0,46.7,0,104S46.7,208,104,208z"/>
<path class="st1" d="M181.2,448h165.6v16H181.2V448z"/>
<path class="st1" d="M376,208H165.4c-6.6,0-12.4,4-14.9,10.1L120,294.5v98.2h16V304h108.2L232,334.5V400h-60.3v16h184.6v-16H248
	v-62.5l13.4-33.5H376v88.7h16V224C392,215.2,384.8,208,376,208z M168,288h-28.2l6.4-16H160c4.4,0,8,3.6,8,8V288z M248,288h-64v-8
	c0-13.2-10.8-24-24-24h-7.4l12.8-32H248V288z M376,288H264v-64h112V288z"/>
<path class="st1" d="M496,344v-80c0-22.1-17.9-40-40-40h-16c-3.6,0-7,0.5-10.4,1.4l-2-14.7c-2.5-18.4-17.5-32.5-35.6-34.3V152
	c0-13.2-10.8-24-24-24H248.6c-8,0-15.5,4-20,10.7L203.7,176h-46.6c-16,0-30.5,9.5-36.8,24.2l-38.1,89l-35.9,9
	C28.5,302.6,16,318.6,16,337v64.5C6.7,404.8,0,413.6,0,424v16c0,13.2,10.8,24,24,24h66.8v-16H24c-4.4,0-8-3.6-8-8v-16
	c0-4.4,3.6-8,8-8h76.3v-16H32v-16h32c8.8,0,16-7.2,16-16v-16c0-8.8-7.2-16-16-16H32.1c0.4-10.6,7.7-19.7,18.1-22.3l43.6-10.9
	l41.3-96.3c3.8-8.8,12.4-14.6,22.1-14.6H388c12,0,22.2,9,23.8,20.8l12.7,94.9l16.5,16.5c4.5,4.5,7,10.6,7,17V400h-20.3v16H472
	c4.4,0,8,3.6,8,8v16c0,4.4-3.6,8-8,8h-34.8v16H472c13.2,0,24-10.8,24-24v-16c0-13.2-10.8-24-24-24h-8v-16.8
	C482.2,379.5,496,363.3,496,344z M64,352v16H32v-16H64z M376,176H222.9l19-28.4c1.5-2.2,4-3.6,6.7-3.6H368c4.4,0,8,3.6,8,8V176z
	 M452.3,313l-12.7-12.7l-7.8-58.7c2.6-1,5.4-1.5,8.3-1.5h16c13.2,0,24,10.8,24,24v80c0,10.4-6.7,19.2-16,22.5v-25.3
	C464,330.6,459.8,320.5,452.3,313z"/>
<path class="st0" d="M392,496c-30.9,0-56-25.1-56-56s25.1-56,56-56s56,25.1,56,56S422.9,496,392,496z"/>
<path class="st1" d="M392,464c-13.2,0-24-10.8-24-24s10.8-24,24-24s24,10.8,24,24S405.2,464,392,464z M392,432c-4.4,0-8,3.6-8,8
	s3.6,8,8,8s8-3.6,8-8S396.4,432,392,432z"/>
<path class="st0" d="M136,496c-30.9,0-56-25.1-56-56s25.1-56,56-56s56,25.1,56,56S166.9,496,136,496z"/>
<path class="st1" d="M136,464c-13.2,0-24-10.8-24-24s10.8-24,24-24s24,10.8,24,24S149.2,464,136,464z M136,432c-4.4,0-8,3.6-8,8
	s3.6,8,8,8s8-3.6,8-8S140.4,432,136,432z"/>
<path class="st1" d="M104,96c-8.8,0-16-7.2-16-16s7.2-16,16-16s16,7.2,16,16h16c0-14.9-10.2-27.3-24-30.9V32H96v17.1
	c-13.8,3.6-24,16-24,30.9c0,17.6,14.4,32,32,32c8.8,0,16,7.2,16,16s-7.2,16-16,16s-16-7.2-16-16H72c0,14.9,10.2,27.3,24,30.9V176h16
	v-17.1c13.8-3.6,24-16,24-30.9C136,110.4,121.6,96,104,96z"/>
</svg>
