<?xml version="1.0" encoding="utf-8"?>
<!-- Generator: Adobe Illustrator 22.0.0, SVG Export Plug-In . SVG Version: 6.00 Build 0)  -->
<svg version="1.1" id="Layer_1" xmlns="http://www.w3.org/2000/svg" xmlns:xlink="http://www.w3.org/1999/xlink" x="0px" y="0px"
	 viewBox="0 0 496 496" style="enable-background:new 0 0 496 496;" xml:space="preserve">
<style type="text/css">
	.st0{fill:#F9BA48;}
	.st1{fill:#505050;}
</style>
<path class="st0" d="M32,128h184v144H32V128z"/>
<path class="st0" d="M328,272.9l-3.6-1.8c-42.2-21.1-68.4-63.5-68.4-110.7v-35.5l28.1,9.4c11.9,4,25.5,0.8,34.4-8.1l9.5-9.5l9.5,9.5
	c8.9,8.9,22.5,12.1,34.4,8.1l28.1-9.4v35.5c0,47.2-26.2,89.6-68.4,110.7L328,272.9z"/>
<path class="st1" d="M328,227.3l-29.7-29.7l11.3-11.3l18.3,18.3l98.3-98.3l11.3,11.3L328,227.3z"/>
<path class="st1" d="M272,400h88v16h-88V400z"/>
<path class="st1" d="M320,480H16V112h96V16h208v108.7l8-8l8,8V0H100.7L0,100.7V496h336v-89h-16V480z M27.3,96L96,27.3V96H27.3z"/>
<path class="st1" d="M475.4,326.1l-35.5-5.1c-2.1-0.3-4.1-1.5-5.4-3.3l-26.4-37c-7.5-10.5-19.7-16.8-32.6-16.8H273.1
	c-13.4,0-25.8,6.7-33.3,17.8l-19.3,29c-1,1.5-2.6,2.7-4.4,3.2l-63.1,18.9c-10.2,3.1-17.1,12.3-17.1,23V392c0,13.2,10.8,24,24,24h48
	v-16h-48c-4.4,0-8-3.6-8-8v-36.1c0-3.6,2.3-6.6,5.7-7.7l63.1-18.9c5.3-1.6,10-5,13.1-9.7l19.3-29c4.5-6.7,11.9-10.7,20-10.7h102.4
	c7.7,0,15,3.8,19.5,10l26.5,37c3.8,5.3,9.7,8.9,16.1,9.8l35.5,5.1c3.9,0.5,6.9,4,6.9,7.9V392c0,4.4-3.6,8-8,8h-48v16h48
	c13.2,0,24-10.8,24-24v-42.1C496,338,487.1,327.8,475.4,326.1z"/>
<path class="st1" d="M267.1,296l-24,48h161.9l-24-48H267.1z M268.9,328l8-16h94.1l8,16H268.9z"/>
<path class="st1" d="M208,64h16v16h-16V64z"/>
<path class="st1" d="M240,64h16v16h-16V64z"/>
<path class="st1" d="M176,64h16v16h-16V64z"/>
<path class="st1" d="M32,128h184v16H32V128z"/>
<path class="st1" d="M32,192h184v16H32V192z"/>
<path class="st0" d="M240,448c-22.1,0-40-17.9-40-40s17.9-40,40-40s40,17.9,40,40S262.1,448,240,448z"/>
<path class="st1" d="M232,400h16v16h-16V400z"/>
<path class="st0" d="M392,448c-22.1,0-40-17.9-40-40s17.9-40,40-40s40,17.9,40,40S414.1,448,392,448z"/>
<path class="st1" d="M384,400h16v16h-16V400z"/>
<path class="st1" d="M144,160h72v16h-72V160z"/>
<path class="st1" d="M32,160h96v16H32V160z"/>
<path class="st1" d="M32,224h184v16H32V224z"/>
<path class="st1" d="M32,256h184v16H32V256z"/>
<path class="st1" d="M176,464h-16c-12.2,0-17.5-12-21.3-20.8c-1.5-3.4-4.9-11.2-6.7-11.2c-1.8,0-5.2,7.8-6.7,11.2
	c-3.8,8.8-9.1,20.8-21.3,20.8c-12.2,0-17.5-12-21.3-20.8c-1.5-3.4-4.9-11.2-6.7-11.2s-5.2,7.8-6.7,11.2C65.5,452,60.2,464,48,464H32
	v-16h16c1.8,0,5.2-7.8,6.7-11.2C58.5,428,63.8,416,76,416c12.2,0,17.5,12,21.3,20.8c1.5,3.4,4.9,11.2,6.7,11.2
	c1.8,0,5.2-7.8,6.7-11.2c3.8-8.8,9.1-20.8,21.3-20.8c12.2,0,17.5,12,21.3,20.8c1.5,3.4,4.9,11.2,6.6,11.2h16V464z"/>
<path class="st1" d="M192,448h16v16h-16V448z"/>
<path class="st1" d="M304,112H128V32h176V112z M144,96h144V48H144V96z"/>
</svg>
