<?xml version="1.0" encoding="utf-8"?>
<!-- Generator: Adobe Illustrator 22.0.0, SVG Export Plug-In . SVG Version: 6.00 Build 0)  -->
<svg version="1.1" id="Layer_1" xmlns="http://www.w3.org/2000/svg" xmlns:xlink="http://www.w3.org/1999/xlink" x="0px" y="0px"
	 viewBox="0 0 512 512" style="enable-background:new 0 0 512 512;" xml:space="preserve">
<style type="text/css">
	.st0{fill:#504B5A;}
	.st1{fill:#DCDBDE;}
	.st2{fill:#E8BE39;}
	.st3{fill:#736F7B;}
	.st4{fill:#625D6B;}
	.st5{fill:#C19D3A;}
	.st6{fill:#A7A5AC;}
</style>
<polygon class="st0" points="397.2,203 361.9,220.7 344.3,167.7 379.6,167.7 "/>
<ellipse class="st1" cx="414.9" cy="181" rx="17.7" ry="22.1"/>
<path class="st2" d="M379.6,150.1h22.1c7.3,0,13.2,5.9,13.2,13.2v35.3c0,7.3-5.9,13.2-13.2,13.2h-4.4L379.6,150.1z"/>
<polygon class="st3" points="326.6,203 158.9,203 185.4,256 150.1,282.5 141.2,309 211.9,335.4 282.5,335.4 300.1,309 309,309 
	326.6,247.2 "/>
<path class="st0" d="M216.3,229.5h105.9c7.3,0,13.2-5.9,13.2-13.2l0,0c0-7.3-5.9-13.2-13.2-13.2H216.3c-7.3,0-13.2,5.9-13.2,13.2
	l0,0C203,223.6,209,229.5,216.3,229.5z"/>
<path class="st4" d="M264.8,229.5l5.8,17.3c1.9,5.7,6.6,10.1,12.5,11.5l25.9,6.5l13.2-35.3L264.8,229.5L264.8,229.5z"/>
<path class="st5" d="M361.6,183l7.8,39.3c0.9,4.6,0,9.3-2.6,13.2l-44,66c-3.1,4.7-8.3,7.6-13.9,7.8l-8.7,0.4v-18.5l26.5-79.4
	L361.6,183z"/>
<path class="st0" d="M79.4,229.5C35.6,229.5,0,265.1,0,309s35.6,79.4,79.4,79.4s79.4-35.6,79.4-79.4S123.3,229.5,79.4,229.5z
	 M79.4,361.9c-29.3,0-53-23.7-53-53c0-29.3,23.7-53,53-53s53,23.7,53,53S108.7,361.9,79.4,361.9z"/>
<circle class="st6" cx="79.4" cy="309" r="35.3"/>
<g>
	<circle class="st0" cx="79.4" cy="309" r="17.7"/>
	<path class="st0" d="M432.6,229.5c-43.9,0-79.4,35.6-79.4,79.4s35.6,79.4,79.4,79.4S512,352.8,512,309S476.4,229.5,432.6,229.5z
		 M432.6,361.9c-29.3,0-53-23.7-53-53c0-29.3,23.7-53,53-53c29.3,0,53,23.7,53,53C485.5,338.2,461.8,361.9,432.6,361.9z"/>
</g>
<circle class="st6" cx="432.6" cy="309" r="35.3"/>
<circle class="st0" cx="432.6" cy="309" r="17.7"/>
<g>
	<path class="st4" d="M432.6,317.8c-3.6,0-7.1-2.3-8.3-5.9l-58.7-167.7c-0.6-1.8-2.3-3-4.2-3h-17.1c-4.9,0-8.8-4-8.8-8.8
		s3.9-8.8,8.8-8.8h17.1c9.4,0,17.7,5.9,20.8,14.8L440.9,306c1.6,4.6-0.8,9.6-5.4,11.3C434.5,317.6,433.5,317.8,432.6,317.8z"/>
	<path class="st4" d="M79.5,317.8c-3.3,0-6.5-1.9-8-5.1c-2-4.4-0.1-9.7,4.3-11.7l114.8-53c4.4-2,9.7-0.1,11.7,4.3
		c2,4.4,0.1,9.7-4.3,11.7L83.1,317C81.9,317.5,80.7,317.8,79.5,317.8z"/>
	<path class="st4" d="M247.2,203l-65.3,21.8c-9.2,3.1-19.1,3.1-28.2,0l-77.1-25.7c-8.1-2.7-12.5-11.5-9.8-19.6l0,0
		c2.3-6.9,9-11.3,16.3-10.5l164.2,16.4L247.2,203L247.2,203z"/>
</g>
<path class="st2" d="M361.6,183L361.6,183c2.5,15.1-9.1,28.8-24.4,28.8H255c-13.7,0-22.6-14.4-16.5-26.7l0-0.1
	c2.7-5.4,7.8-9.1,13.7-10l81.2-12.5C346.8,160.6,359.4,169.6,361.6,183z"/>
<path class="st4" d="M274.5,344.3h-49.8c-9.6,0-18.9-1.7-27.9-5.1l-58.6-22c-4.6-1.7-6.9-6.8-5.2-11.4c1.7-4.6,6.8-6.9,11.4-5.2
	l58.6,22c7,2.6,14.3,3.9,21.7,3.9h49.8c9.3,0,16.8-7.5,16.8-16.8c0-7.3-4.6-13.7-11.5-16L244.4,282c-4.6-1.5-7.1-6.5-5.6-11.2
	c1.5-4.6,6.5-7.1,11.2-5.6l35.4,11.8c14.1,4.7,23.6,17.8,23.6,32.7C309,328.8,293.5,344.3,274.5,344.3z"/>
<circle class="st0" cx="233.9" cy="295.7" r="22.1"/>
<circle class="st6" cx="225.1" cy="242.8" r="13.2"/>
<circle class="st5" cx="337.7" cy="187.6" r="15.4"/>
</svg>
