<?xml version="1.0" encoding="utf-8"?>
<!-- Generator: Adobe Illustrator 22.0.0, SVG Export Plug-In . SVG Version: 6.00 Build 0)  -->
<svg version="1.1" id="Layer_1" xmlns="http://www.w3.org/2000/svg" xmlns:xlink="http://www.w3.org/1999/xlink" x="0px" y="0px"
	 viewBox="0 0 496 496" style="enable-background:new 0 0 496 496;" xml:space="preserve">
<style type="text/css">
	.st0{fill:#F9BA48;}
	.st1{fill:#505050;}
</style>
<path class="st0" d="M144,184v-64H32v104h272v-40H144z"/>
<path class="st1" d="M474.9,287.6l-26.5-26.5c-13.6-13.6-31.7-21.1-50.9-21.1H336V0H84.7L0,84.7V432h97.5c3.3,9.3,12.1,16,22.5,16
	h32.7v-16H120c-4.4,0-8-3.6-8-8v-8h52.3v-16H112v-30.3c0-11.3,7.7-21,18.8-23.4l49.7-11L227,277c10.7-13.4,26.6-21,43.7-21h126.7
	c15,0,29,5.8,39.6,16.4l11.8,11.8c-5.8,8.1-8.9,17.7-8.9,27.8c0,23.7,17.3,43.4,39.9,47.3l0,40.7h-52.2v16h52.1l0,8c0,4.4-3.6,8-8,8
	h-32.6v16h32.6c13.2,0,24-10.8,24-24l0.1-85.5C495.9,319.3,488.5,301.2,474.9,287.6z M80,27.3V80H27.3L80,27.3z M320,240h-49.2
	c-22,0-42.5,9.8-56.2,27l-43,53.8l-44.2,9.8c-18.5,4.1-31.3,20.2-31.3,39V416H16V96h80V16h224V240z M479.9,342.8
	c-13.7-3.6-23.9-16-23.9-30.8c0-5.8,1.6-11.3,4.5-16.2l3,3c10.6,10.6,16.4,24.6,16.4,39.6V342.8z"/>
<path class="st1" d="M248.3,432H344v16h-95.7V432z"/>
<path class="st1" d="M392,272H282.7c-14.3,0-27.7,6.3-36.9,17.3L216,325.1V400h16v-64h72v16h-32v16h32v32h-68.3v16h120.5v-16H320
	v-64h88v16h-32v16h32v32h16v-96C424,286.4,409.6,272,392,272z M241.1,320l17.1-20.5c6.1-7.3,15.1-11.5,24.6-11.5H304v32H241.1z
	 M408,320h-88v-32h72c8.8,0,16,7.2,16,16V320z"/>
<path class="st1" d="M304,160H160V32h144V160z M176,144h112V48H176V144z"/>
<path class="st1" d="M32,112h112v16H32V112z"/>
<path class="st1" d="M32,144h112v16H32V144z"/>
<path class="st1" d="M32,176h272v16H32V176z"/>
<path class="st1" d="M288,208h16v16h-16V208z"/>
<path class="st1" d="M32,208h240v16H32V208z"/>
<path class="st1" d="M72,288c-4.4,0-8-3.6-8-8s3.6-8,8-8s8,3.6,8,8h16c0-10.4-6.7-19.2-16-22.5V240H64v17.5
	c-9.3,3.3-16,12.1-16,22.5c0,13.2,10.8,24,24,24c4.4,0,8,3.6,8,8s-3.6,8-8,8s-8-3.6-8-8H48c0,10.4,6.7,19.2,16,22.5V352h16v-17.5
	c9.3-3.3,16-12.1,16-22.5C96,298.8,85.2,288,72,288z"/>
<path class="st0" d="M392,496c-30.9,0-56-25.1-56-56s25.1-56,56-56s56,25.1,56,56S422.9,496,392,496z"/>
<path class="st1" d="M392,464c-13.2,0-24-10.8-24-24s10.8-24,24-24s24,10.8,24,24S405.2,464,392,464z M392,432c-4.4,0-8,3.6-8,8
	s3.6,8,8,8s8-3.6,8-8S396.4,432,392,432z"/>
<path class="st0" d="M200,496c-30.9,0-56-25.1-56-56s25.1-56,56-56s56,25.1,56,56S230.9,496,200,496z"/>
<path class="st1" d="M200,464c-13.2,0-24-10.8-24-24s10.8-24,24-24s24,10.8,24,24S213.2,464,200,464z M200,432c-4.4,0-8,3.6-8,8
	s3.6,8,8,8s8-3.6,8-8S204.4,432,200,432z"/>
</svg>
