<?xml version="1.0" encoding="utf-8"?>
<!-- Generator: Adobe Illustrator 22.0.0, SVG Export Plug-In . SVG Version: 6.00 Build 0)  -->
<svg version="1.1" id="Layer_35" xmlns="http://www.w3.org/2000/svg" xmlns:xlink="http://www.w3.org/1999/xlink" x="0px" y="0px"
	 viewBox="0 0 512 512" style="enable-background:new 0 0 512 512;" xml:space="preserve">
<style type="text/css">
	.st0{fill:#505050;}
	.st1{fill:#F9BA48;}
</style>
<path class="st0" d="M360,264h16v28.8h-16V264z"/>
<path class="st0" d="M440,344v69.3c0,16.4-8.8,31-22,38.2c-4.9-18-12.9-35-23.7-50.7l5.6-3.9c15.1-10.4,24.1-27.7,24.1-46V344h-16
	v6.8c0,13.1-6.4,25.4-17.2,32.9l-77.1,53.4c-2.8,1.9-6,2.9-9.3,2.9c-9,0-16.4-7.4-16.4-16.4v-2.2c0-5.6,2.8-10.8,7.6-13.8l69.3-44.1
	c7-4.4,11.1-12,11.1-20.2V342h-16v1.2c0,2.8-1.4,5.3-3.7,6.8l-38.9,24.7c-37.9-19.1-84.9-19.1-122.8,0L155.7,350
	c-2.3-1.5-3.7-4-3.7-6.8V286h-16v57.2c0,8.2,4.2,15.8,11.1,20.2l69.3,44.1c4.8,3,7.6,8.2,7.6,13.8v2.2c0,9-7.3,16.4-16.4,16.4
	c-3.3,0-6.6-1-9.3-2.9l-77.1-53.4c-10.8-7.5-17.2-19.8-17.2-32.9V304c0-12,2-23.8,6.1-35.1L95,263.5c-4.6,13-7,26.6-7,40.5v46.8
	c0,18.4,9,35.6,24.1,46l5.6,3.9c-10.8,15.6-18.8,32.7-23.7,50.7C80.8,444.3,72,429.7,72,413.3V256c0-3.3,0.2-6.6,0.7-9.9L56.8,244
	c-0.5,4-0.8,8-0.8,12v157.3c0,23.9,13.9,45.1,34.4,54.2c-1.6,9.4-2.4,18.9-2.4,28.6v8h336v-8c0-9.7-0.8-19.2-2.4-28.6
	c20.6-9,34.4-30.2,34.4-54.2V344H440z M207.6,456c17.9,0,32.4-14.5,32.4-32.4v-2.2c0-11.1-5.6-21.3-15-27.3l-14.3-9.1
	c28.7-11.5,61.9-11.5,90.6,0l-14.3,9.1c-9.4,6-15,16.2-15,27.3v2.2c0,17.9,14.5,32.4,32.4,32.4c6.6,0,13-2,18.4-5.8l32-22.2
	c12.3,17.8,19.4,38.3,20.8,59.9H136.3c1.4-21.6,8.5-42.1,20.8-59.9l32,22.2C194.6,454,201,456,207.6,456L207.6,456z M130.9,409.9
	L144,419c-14.2,20.5-22.3,44.1-23.7,69h-16.1C105.6,459.8,114.8,433.1,130.9,409.9z M391.7,488c-1.4-24.9-9.5-48.5-23.7-69l13.2-9.1
	c16,23.2,25.2,49.9,26.7,78.1L391.7,488L391.7,488z"/>
<path class="st0" d="M399.8,174c14.6-10.1,24.2-27,24.2-46V64c0-30.9-25.1-56-56-56H144c-30.9,0-56,25.1-56,56v64
	c0,19.1,9.6,36,24.2,46.1c-12.3,4.8-23.6,12.2-32.7,22L91.2,207c13.6-14.6,32.8-23,52.8-23h64c-32.1,0-62.3,12.5-84.9,35.2
	l11.3,11.3c16.8-16.8,38.3-27.1,61.5-29.8l15.8,63l15.5-3.9l-15-59.9h5.4l28.4,39.7l-17.5,21.9l12.5,10l15-18.8l25.8,32.2l6.2-5
	l7.8,1.9l20.3-81.2c48.8,5.7,88,45.6,91.7,95.6l16-1.2C419.2,232.8,366.6,184,304,184h64c39.7,0,72,32.3,72,72v40h16v-40
	C456,218.7,432.6,186.8,399.8,174L399.8,174z M256,184c-35.3,0-64-28.7-64-64s28.7-64,64-64s64,28.7,64,64S291.3,184,256,184
	L256,184z M237.3,200h37.5L256,226.2L237.3,200z M284.2,262.4L266,239.7l28.4-39.7h5.4L284.2,262.4z M319.8,168
	c10.1-13.4,16.2-30,16.2-48c0-44.1-35.9-80-80-80s-80,35.9-80,80c0,18,6.1,34.6,16.2,48H144c-22.1,0-40-17.9-40-40V64
	c0-22.1,17.9-40,40-40h224c22.1,0,40,17.9,40,40v64c0,22.1-17.9,40-40,40H319.8z"/>
<path class="st1" d="M433.9,288c-148.5,0-295.3-49.6-413.4-139.5l-4.5-3.4v77.6C134.9,307.3,274.7,352,420.9,352H496v-64H433.9z"/>
<path class="st0" d="M8,128h16v128H8V128z"/>
<path class="st0" d="M488,256h16v128h-16V256z"/>
<path class="st0" d="M120,40h16v16h-16V40z"/>
<path class="st0" d="M120,72h16v16h-16V72z"/>
<path class="st0" d="M120,104h16v16h-16V104z"/>
</svg>
