<?xml version="1.0" encoding="utf-8"?>
<!-- Generator: Adobe Illustrator 22.0.0, SVG Export Plug-In . SVG Version: 6.00 Build 0)  -->
<svg version="1.1" id="Layer_1" xmlns="http://www.w3.org/2000/svg" xmlns:xlink="http://www.w3.org/1999/xlink" x="0px" y="0px"
	 viewBox="0 0 496 496" style="enable-background:new 0 0 496 496;" xml:space="preserve">
<style type="text/css">
	.st0{fill:#505050;}
	.st1{fill:#F9BA48;}
</style>
<path class="st0" d="M152,392h176v16H152V392z"/>
<path class="st1" d="M8,296v34.4c4.7,3.4,10.1,5.6,16,5.6c17.7,0,32-17.9,32-40c0-13.1-5.1-24.7-13-32h-3C22.3,264,8,278.3,8,296z"
	/>
<path class="st0" d="M407.5,209.2c-6.1-15.3-20.7-25.2-37.1-25.2H189.7c-21.3,0-40.5,11.9-50.1,31L112,270.1v84.7h16V280h112v16h-32
	v16h32v48H139.8v16h200.5v-16h-19.6c3.7-23.6,23.3-42.3,47.8-44l63.6-4.5v-41L407.5,209.2z M392.6,215.1l19.6,48.9H256v-64h114.3
	C380.2,200,389,205.9,392.6,215.1z M132.9,264l8-16H168v16H132.9z M184,264v-16c0-8.8-7.2-16-16-16h-19.1l4.9-9.9
	c6.8-13.6,20.5-22.1,35.8-22.1H240v64H184z M367.3,300c-32.8,2.3-59,28-62.8,60H256v-80h160v16.6L367.3,300z"/>
<path class="st1" d="M448,312c0,17.6,14.4,32,32,32c2.6,0,5.3-0.5,8-1.2v-61.6C467,275.5,448,291.7,448,312z"/>
<path class="st1" d="M191.8,160h236.7c1.3,0,2.5,0.3,3.7,0.6l-14.3-100C416.2,48.9,406,40,394.1,40H181.9
	c-11.9,0-22.1,8.9-23.8,20.6L141.3,178C155.4,166.6,173.1,160,191.8,160z"/>
<path class="st0" d="M176,88h16v48h16V88h16V72h-48V88z"/>
<path class="st0" d="M400,88V72h-48v16h16v32h-16v16h48v-16h-16V88H400z"/>
<path class="st0" d="M242,72l-17.7,61.8l15.4,4.4l2.9-10.2h26.8l2.9,10.2l15.4-4.4L270,72H242z M247.2,112l6.9-24h3.9l6.9,24H247.2z
	"/>
<path class="st0" d="M329.2,67.8L316,88.9l-13.2-21.1l-13.6,8.5l17.4,27.8l-17.4,27.8l13.6,8.5l13.2-21.1l13.2,21.1l13.6-8.5
	L325.4,104l17.4-27.8L329.2,67.8z"/>
<path class="st0" d="M454.7,178.7l-3.4-10.3c-3.3-9.8-12.4-16.4-22.8-16.4H191.8c-32.4,0-62.1,17.7-77.5,46.3L83.2,256H40
	c-22.1,0-40,17.9-40,40v72c0,22.1,17.9,40,40,40h16v-16H40c-10.4,0-19.2-6.7-22.5-16h50.8v-16H16v-64c0-13.2,10.8-24,24-24h52.8
	l35.6-66.1c12.6-23.4,36.9-37.9,63.4-37.9h236.7c3.4,0,6.5,2.2,7.6,5.5l5.3,15.9l2.5,1.5c22.3,13.4,36.1,37.8,36.1,63.8V360h-68.2
	v16h66.8c-3.3,9.3-12.1,16-22.5,16h-32v16h32c22.1,0,40-17.9,40-40V254.6C496,224.1,480.2,195.3,454.7,178.7z"/>
<path class="st1" d="M104,456c-30.9,0-56-25.1-56-56s25.1-56,56-56s56,25.1,56,56S134.9,456,104,456z M104,384c-8.8,0-16,7.2-16,16
	s7.2,16,16,16s16-7.2,16-16S112.8,384,104,384z"/>
<path class="st1" d="M376,456c-30.9,0-56-25.1-56-56s25.1-56,56-56s56,25.1,56,56S406.9,456,376,456z M376,384c-8.8,0-16,7.2-16,16
	s7.2,16,16,16s16-7.2,16-16S384.8,384,376,384z"/>
<path class="st0" d="M104,424c-13.2,0-24-10.8-24-24s10.8-24,24-24s24,10.8,24,24S117.2,424,104,424z M104,392c-4.4,0-8,3.6-8,8
	s3.6,8,8,8s8-3.6,8-8S108.4,392,104,392z"/>
<path class="st0" d="M376,424c-13.2,0-24-10.8-24-24s10.8-24,24-24s24,10.8,24,24S389.2,424,376,424z M376,392c-4.4,0-8,3.6-8,8
	s3.6,8,8,8s8-3.6,8-8S380.4,392,376,392z"/>
</svg>
