<?xml version="1.0" encoding="utf-8"?>
<!-- Generator: Adobe Illustrator 22.0.0, SVG Export Plug-In . SVG Version: 6.00 Build 0)  -->
<svg version="1.1" id="Layer_5" xmlns="http://www.w3.org/2000/svg" xmlns:xlink="http://www.w3.org/1999/xlink" x="0px" y="0px"
	 viewBox="0 0 512 512" style="enable-background:new 0 0 512 512;" xml:space="preserve">
<style type="text/css">
	.st0{fill:#F9BA48;}
	.st1{fill:#505050;}
</style>
<g>
	<g>
		<path class="st0" d="M447.1,252.8c-2.7-0.8-4.7-3.1-5.5-6c-4.4-16.5-11-32.4-19.6-47.2c-1.5-2.6-1.7-5.7-0.4-8.2
			c4.9-9.4,3.2-20.7-4.3-28.2l-28.5-28.5c-5.5-5.5-13.3-7.9-20.8-6.7c0,0,0,0,0,0c0,8.8-7.2,16-16,16v34.1
			c34.2,27.9,56,70.3,56,117.9c0,83.9-68.1,152-152,152s-152-68.1-152-152c0-47.5,21.8-90,56-117.9V144c-8.8,0-16-7.2-16-16
			c0,0,0,0,0,0c-7.5-1.2-15.3,1.2-20.8,6.7l-28.5,28.5c-7.5,7.5-9.2,18.8-4.3,28.3c1.3,2.5,1.2,5.5-0.4,8.2
			c-8.6,14.8-15.2,30.7-19.6,47.2c-0.8,3-2.8,5.2-5.5,6C54.8,256,48,265.2,48,275.8v40.3c0,10.6,6.8,19.8,16.9,23
			c2.7,0.8,4.7,3.1,5.5,6c4.4,16.5,11,32.4,19.6,47.2c1.5,2.6,1.7,5.7,0.4,8.2c-4.9,9.4-3.2,20.7,4.3,28.2l28.5,28.5
			c7.5,7.5,18.8,9.2,28.3,4.3c2.5-1.3,5.5-1.1,8.2,0.4c14.8,8.6,30.7,15.2,47.2,19.6c3,0.8,5.2,2.8,6,5.5
			c3.2,10.1,12.4,16.9,23,16.9h40.3c10.6,0,19.8-6.8,23-16.9c0.8-2.7,3.1-4.7,6-5.5c16.5-4.4,32.4-11,47.2-19.6
			c2.6-1.5,5.7-1.7,8.2-0.4c9.4,4.9,20.7,3.2,28.2-4.3l28.5-28.5c7.5-7.5,9.2-18.8,4.3-28.3c-1.3-2.5-1.2-5.5,0.4-8.2
			c8.6-14.8,15.2-30.7,19.6-47.2c0.8-3,2.8-5.2,5.5-6c10.1-3.2,16.9-12.4,16.9-23v-40.3C464,265.2,457.2,256,447.1,252.8
			L447.1,252.8z"/>
	</g>
	<g>
		<circle class="st1" cx="224" cy="176" r="8"/>
		<circle class="st1" cx="288" cy="176" r="8"/>
		<path class="st1" d="M272,224h-48v16h48c13.2,0,24-10.8,24-24h-16C280,220.4,276.4,224,272,224z"/>
		<path class="st1" d="M472,56h32V28.7l-2.3-2.3C490.2,14.5,473.9,8,456,8c-18.9,0-36.7,8.3-48.9,22.8c-4.9,5.8-11.8,9.2-18.8,9.2
			h-57.4C311.9,20.3,285.4,8,256,8s-55.9,12.3-74.9,32h-57.4c-7.1,0-13.9-3.3-18.8-9.2C92.7,16.3,74.9,8,56,8
			c-17.9,0-34.2,6.5-45.7,18.4L8,28.7V56h41.2l5.3,32H8v27.3l2.3,2.3C21.8,129.5,38.1,136,56,136c18.9,0,36.7-8.3,48.9-22.8
			c4.9-5.8,11.8-9.2,18.8-9.2h28.7c0,0.5,0,0.9-0.1,1.4c-9.5,3.2-16.3,12.1-16.3,22.6c0,10.4,6.7,19.2,16,22.5v24
			C116.4,205,96,249,96,296c0,88.2,71.8,160,160,160s160-71.8,160-160c0-47-20.4-91-56-121.5v-24c9.3-3.3,16-12.1,16-22.5
			c0-10.5-6.9-19.4-16.3-22.6c0-0.5,0-0.9-0.1-1.4h28.7c7.1,0,13.9,3.3,18.8,9.2c12.2,14.5,30,22.8,48.9,22.8
			c17.9,0,34.2-6.5,45.7-18.4l2.3-2.3V88h-32c-8.8,0-16-7.2-16-16S463.2,56,472,56L472,56z M280,27.4c34.4,9.8,60.3,39.9,63.6,76.6
			H312V72h-16v32h-16V27.4z M248,24.4c2.6-0.2,5.3-0.4,8-0.4c2.7,0,5.4,0.2,8,0.4V104h-16V24.4z M232,27.4V104h-16V72h-16v32h-31.6
			C171.7,67.4,197.6,37.2,232,27.4z M123.7,88c-11.8,0-23.1,5.4-31.1,14.9C83.5,113.8,70.2,120,56,120c-12.4,0-23.6-4-32-11.4V104
			h49.4L62.8,40H24v-4.6C32.4,28,43.6,24,56,24c14.2,0,27.5,6.2,36.7,17.1c8,9.5,19.3,14.9,31.1,14.9h44.8
			c-6.2,9.7-10.9,20.5-13.6,32H123.7z M152.4,196c2,15.7,15.3,28,31.6,28c0,22.1,15,40.7,35.4,46.3l-2.2,11.2
			c-39.9,10.8-73.4,38.9-91.2,75.9C117.1,338.7,112,318,112,296C112,258.3,126.6,222.8,152.4,196L152.4,196z M184,176v32
			c-8.8,0-16-7.2-16-16S175.2,176,184,176z M168,164.4V152h16v8C178.1,160,172.7,161.7,168,164.4z M208.8,328H176v-8.1
			c9.7-7.6,20.4-13.9,32-18.5V320C208,322.7,208.3,325.4,208.8,328z M216.2,344c7.3,9.7,18.8,16,31.8,16h-72v-16H216.2z M248,376v16
			h-72v-16H248z M248,408v31.6c-26.5-1.5-51.2-10-72-23.9V408H248z M336,408v7.6c-20.8,14-45.5,22.5-72,23.9V408H336z M264,392v-16
			h72v16H264z M336,328h-32.8c0.5-2.6,0.8-5.3,0.8-8v-18.6c11.6,4.6,22.3,10.8,32,18.5L336,328z M336,344v16h-72
			c13,0,24.5-6.3,31.8-16H336z M288,320c0,13.2-10.8,24-24,24h-16c-13.2,0-24-10.8-24-24v-19.2l32,40l32-40V320z M232.6,285.9
			l2.8-13.9h41.3l2.8,13.9L256,315.2L232.6,285.9z M280,256h-48c-17.6,0-32-14.4-32-32v-72h112v72C312,241.6,297.6,256,280,256z
			 M135.9,375.2c5.5-14.9,13.7-28.6,24.1-40.2v68C150.8,394.8,142.7,385.5,135.9,375.2z M352,403v-68c10.4,11.7,18.6,25.3,24.1,40.2
			C369.3,385.5,361.2,394.8,352,403z M400,296c0,22-5.1,42.7-13.9,61.4c-17.8-37-51.3-65.1-91.2-75.9l-2.2-11.2
			C313,264.7,328,246.1,328,224c16.3,0,29.6-12.2,31.6-28C385.4,222.8,400,258.3,400,296z M344,192c0,8.8-7.2,16-16,16v-32
			C336.8,176,344,183.2,344,192z M328,160v-8h16v12.4C339.3,161.7,333.9,160,328,160z M360,128c0,4.4-3.6,8-8,8H160
			c-4.4,0-8-3.6-8-8s3.6-8,8-8h192C356.4,120,360,123.6,360,128z M472,104h16v4.6c-8.4,7.4-19.6,11.4-32,11.4
			c-14.2,0-27.5-6.2-36.7-17.1c-8-9.5-19.3-14.9-31.1-14.9h-31.2c-2.7-11.5-7.4-22.3-13.6-32h44.8c11.8,0,23.1-5.4,31.1-14.9
			C428.5,30.2,441.8,24,456,24c12.4,0,23.6,4,32,11.4V40h-16c-17.6,0-32,14.4-32,32S454.4,104,472,104z"/>
	</g>
</g>
</svg>
