<?xml version="1.0" encoding="utf-8"?>
<!-- Generator: Adobe Illustrator 22.0.0, SVG Export Plug-In . SVG Version: 6.00 Build 0)  -->
<svg version="1.1" id="Layer_35" xmlns="http://www.w3.org/2000/svg" xmlns:xlink="http://www.w3.org/1999/xlink" x="0px" y="0px"
	 viewBox="0 0 512 512" style="enable-background:new 0 0 512 512;" xml:space="preserve">
<style type="text/css">
	.st0{fill:#F9BA48;}
	.st1{fill:#505050;}
</style>
<path class="st0" d="M256,424c-92.6,0-168-75.4-168-168S163.4,88,256,88s168,75.4,168,168S348.6,424,256,424z M256,144
	c-61.8,0-112,50.2-112,112s50.2,112,112,112s112-50.2,112-112S317.8,144,256,144z"/>
<path class="st1" d="M216,256c0,22.1,17.9,40,40,40s40-17.9,40-40s-17.9-40-40-40S216,233.9,216,256z M280,256c0,13.2-10.8,24-24,24
	s-24-10.8-24-24s10.8-24,24-24S280,242.8,280,256z"/>
<path class="st1" d="M256,136c-66.2,0-120,53.8-120,120s53.8,120,120,120s120-53.8,120-120S322.2,136,256,136z M344.7,201.9
	l-31.6,10.3c-8.5-11.1-20-19.4-33.1-24v-33.3C307.3,161.4,330.4,178.6,344.7,201.9L344.7,201.9z M264,152.4v47.9l6,1.5
	c13.7,3.6,25.5,12.1,33.2,24.1l3.3,5.2l45.6-14.8c2,4.9,3.6,10,4.9,15.2l-45.5,14.8l0.4,7.2c0.1,0.8,0.1,1.6,0.1,2.4
	c0,13-4.5,25.6-12.8,35.6l-4,4.8l28.1,38.7c-4.1,3.5-8.4,6.6-13,9.4l-28.1-38.7l-5.8,2.3c-13.2,5.2-27.8,5.2-41,0l-5.8-2.3
	l-28.1,38.7c-4.6-2.8-8.9-5.9-13-9.4l28.1-38.7l-3.9-4.8c-8.3-10-12.8-22.6-12.8-35.6c0-0.8,0.1-1.6,0.1-2.4l0.4-7.2L155,231.6
	c1.3-5.2,2.9-10.3,4.9-15.2l45.6,14.8l3.3-5.2c7.7-12,19.5-20.6,33.2-24.1l6-1.6v-47.9c2.6-0.2,5.3-0.4,8-0.4
	C258.7,152,261.4,152.2,264,152.4L264,152.4z M232,154.9v33.3c-13.1,4.6-24.6,13-33.1,24l-31.6-10.3
	C181.6,178.6,204.7,161.4,232,154.9L232,154.9z M152,256c0-2.8,0.2-5.6,0.4-8.4l31.6,10.3c0.4,13.9,4.8,27.5,12.7,39l-19.5,26.8
	C161.5,305.4,152,281.8,152,256L152,256z M216,352l19.6-27c13.3,4,27.6,4,40.9,0l19.6,27c-12.3,5.2-25.9,8-40,8S228.3,357.1,216,352
	L216,352z M334.8,323.7l-19.5-26.8c7.9-11.4,12.3-25,12.7-39l31.6-10.3c0.2,2.8,0.4,5.6,0.4,8.4C360,281.8,350.5,305.4,334.8,323.7z
	"/>
<path class="st1" d="M256,8C119.3,8,8,119.2,8,256s111.3,248,248,248s248-111.2,248-248S392.7,8,256,8z M488,256
	c0,4.6-0.2,9.1-0.4,13.6l-31.6-4.5v-18.1l31.6-4.5C487.8,246.9,488,251.4,488,256z M278.9,440h-45.9l-6.6,46.1
	c-41.9-5.4-80.4-21.9-112.2-46.6l27.9-37.1l-32.4-32.4l-37.1,27.9c-24.7-31.9-41.2-70.3-46.6-112.2l46.1-6.6v-45.9l-46.1-6.6
	c5.4-41.9,21.9-80.3,46.6-112.2l37.1,27.9l32.4-32.4l-27.9-37.1c31.9-24.7,70.3-41.2,112.2-46.6l6.6,46.1h45.9l6.6-46.1
	c41.9,5.4,80.4,21.9,112.2,46.6l-27.9,37.1l32.4,32.4l37.1-27.9c24.7,31.9,41.2,70.3,46.6,112.2l-46.1,6.6v45.9l46.1,6.6
	c-5.4,41.9-21.9,80.3-46.6,112.2l-37.1-27.9l-32.4,32.4l27.9,37.1c-31.9,24.7-70.3,41.2-112.2,46.6L278.9,440z M24,256
	c0-4.6,0.2-9.1,0.4-13.6l31.6,4.5v18.1l-31.6,4.5C24.2,265.1,24,260.6,24,256L24,256z M429.2,101.9L403.8,121L391,108.2l19.1-25.4
	C416.8,88.8,423.2,95.2,429.2,101.9L429.2,101.9z M269.6,24.4L265.1,56h-18.1l-4.5-31.6c4.5-0.3,9-0.4,13.6-0.4
	S265.1,24.2,269.6,24.4z M101.9,82.8l19.1,25.4L108.2,121l-25.4-19.1C88.8,95.2,95.2,88.8,101.9,82.8z M82.8,410.1l25.4-19.1
	l12.8,12.8l-19.1,25.4C95.2,423.2,88.8,416.8,82.8,410.1L82.8,410.1z M242.4,487.6l4.5-31.6h18.1l4.5,31.6c-4.5,0.3-9,0.4-13.6,0.4
	S246.9,487.8,242.4,487.6L242.4,487.6z M410.1,429.2L391,403.8l12.8-12.8l25.4,19.1C423.2,416.8,416.8,423.2,410.1,429.2
	L410.1,429.2z"/>
</svg>
