<?xml version="1.0" encoding="utf-8"?>
<!-- Generator: Adobe Illustrator 22.0.0, SVG Export Plug-In . SVG Version: 6.00 Build 0)  -->
<svg version="1.1" id="Capa_1" xmlns="http://www.w3.org/2000/svg" xmlns:xlink="http://www.w3.org/1999/xlink" x="0px" y="0px"
	 viewBox="0 0 1016 1016" style="enable-background:new 0 0 1016 1016;" xml:space="preserve">
<style type="text/css">
	.st0{fill:#505050;}
	.st1{fill:#F9BA48;}
</style>
<g>
	<path class="st0" d="M97.1,238.1H75c0-30.6,24.9-55.5,55.5-55.5v22.1C112.1,204.9,97.1,219.9,97.1,238.1z"/>
	<path class="st0" d="M714.6,173.8L668.1,72.7c-12.5-27.4-40.3-45.1-70.5-45.1H344.3c-26.7,0-51.6,10.4-70.5,29.2l-81.5,81.7h-61.9
		c-55,0-99.7,44.7-99.7,99.7v77.6c0,18.4,14.8,33.2,33.2,33.2h33.2v-22.1H63.8c-6.2,0-11.1-4.9-11.1-11.1v-77.6
		c0-42.8,34.8-77.6,77.6-77.6h71.1l88.2-88c14.7-14.7,34.1-22.8,54.8-22.8h253.3c21.6,0,41.4,12.5,50.4,32.2L694.7,183
		c0.7,1.4,1.1,3,1.1,4.6v17.3h-22.1V227h22.1v22.1h-22.1v22.1h22.1v44.4c0,6.2-4.9,11.1-11.1,11.1h-33.2v22.1h33.2
		c18.4,0,33.2-14.8,33.2-33.2v-128C717.8,182.8,716.8,178,714.6,173.8z"/>
	<rect x="329.8" y="194" class="st0" width="44.4" height="22.1"/>
	<polygon class="st0" points="440.7,326.9 440.7,194 418.6,194 418.6,326.9 274.3,326.9 274.3,349 473.9,349 473.9,326.9 	"/>
	<path class="st1" d="M185.8,437.7c-55,0-99.7-44.7-99.7-99.7s44.7-99.7,99.7-99.7s99.7,44.7,99.7,99.7
		C285.5,393,240.8,437.7,185.8,437.7z"/>
	<path class="st0" d="M185.8,382.4c-24.4,0-44.4-19.8-44.4-44.4c0-24.4,19.8-44.4,44.4-44.4s44.4,19.8,44.4,44.4
		C230.2,362.4,210.2,382.4,185.8,382.4z M185.8,315.7c-12.2,0-22.1,9.9-22.1,22.1c0,12.2,9.9,22.1,22.1,22.1
		c12.2,0,22.1-9.9,22.1-22.1C207.9,325.8,198,315.7,185.8,315.7z"/>
	<path class="st1" d="M562.6,437.7c-55,0-99.7-44.7-99.7-99.7s44.7-99.7,99.7-99.7s99.7,44.7,99.7,99.7
		C662.3,393,617.6,437.7,562.6,437.7z"/>
	<path class="st0" d="M562.6,382.4c-24.4,0-44.4-19.8-44.4-44.4c0-24.4,19.8-44.4,44.4-44.4c24.4,0,44.4,19.8,44.4,44.4
		C607,362.4,587,382.4,562.6,382.4z M562.6,315.7c-12.2,0-22.1,9.9-22.1,22.1c0,12.2,9.9,22.1,22.1,22.1s22.1-9.9,22.1-22.1
		C584.7,325.8,574.8,315.7,562.6,315.7z"/>
	<path class="st0" d="M665,171.7H221.7l83.6-83.6c10.3-10.3,24.6-16.3,39.2-16.3h184.9v22.1H344.3c-8.8,0-17.3,3.5-23.5,9.7
		l-45.6,45.6h355.1l-22.6-48.6c-1.8-3.9-5.7-6.4-10.1-6.4h-46.1V72h46.1c12.9,0,24.7,7.6,30.2,19.3L665,171.7z"/>
</g>
<g>
	<path class="st0" d="M890.3,766.5v-22.1c30.6,0,55.5,24.9,55.5,55.5h-22.1C923.5,781.5,908.5,766.5,890.3,766.5z"/>
	<path class="st0" d="M302.8,749.1v128.1c0,18.4,14.8,33.2,33.2,33.2h33.2v-22.1H336c-6.2,0-11.1-4.9-11.1-11.1v-44.4H347v-22.1
		h-22.1v-22.1H347v-22.1h-22.1v-17.5c0-1.6,0.4-3.2,1.1-4.6l46.7-101.1c9-19.6,28.8-32.2,50.4-32.2h253.3c20.7,0,40.1,8.1,54.8,22.8
		l88,88h71.1c42.8,0,77.6,34.8,77.6,77.6v77.6c0,6.2-4.9,11.1-11.1,11.1h-33.2v22.1h33.2c18.4,0,33.2-14.8,33.2-33.2v-77.6
		c0-55-44.7-99.7-99.7-99.7h-61.9l-81.5-81.7c-18.9-18.7-44-29.2-70.5-29.2H423c-30.2,0-57.8,17.7-70.5,45.1l-46.7,101.1
		C303.8,739.6,302.8,744.4,302.8,749.1z"/>
	<rect x="646.4" y="755.5" class="st0" width="44.4" height="22.1"/>
	<polygon class="st0" points="546.7,888.4 546.7,910.5 746.3,910.5 746.3,888.4 602,888.4 602,755.5 579.9,755.5 579.9,888.4 	"/>
	<path class="st1" d="M735.1,899.6c0-55,44.7-99.7,99.7-99.7c55,0,99.7,44.7,99.7,99.7c0,55-44.7,99.7-99.7,99.7
		C779.8,999.2,735.1,954.5,735.1,899.6z"/>
	<path class="st0" d="M790.4,899.6c0-24.4,19.8-44.4,44.4-44.4c24.6,0,44.4,19.8,44.4,44.4c0,24.4-19.8,44.4-44.4,44.4
		C810.2,943.9,790.4,923.9,790.4,899.6z M812.7,899.6c0,12.2,9.9,22.1,22.1,22.1c12.2,0,22.1-9.9,22.1-22.1s-9.9-22.1-22.1-22.1
		C822.6,877.3,812.7,887.4,812.7,899.6z"/>
	<path class="st1" d="M358.3,899.6c0-55,44.7-99.7,99.7-99.7c55,0,99.7,44.7,99.7,99.7c0,55-44.7,99.7-99.7,99.7
		C403,999.2,358.3,954.5,358.3,899.6z"/>
	<path class="st0" d="M413.6,899.6c0-24.4,19.8-44.4,44.4-44.4c24.4,0,44.4,19.8,44.4,44.4c0,24.4-19.8,44.4-44.4,44.4
		C433.6,943.9,413.6,923.9,413.6,899.6z M435.9,899.6c0,12.2,9.9,22.1,22.1,22.1s22.1-9.9,22.1-22.1s-9.9-22.1-22.1-22.1
		C445.8,877.3,435.9,887.4,435.9,899.6z"/>
	<path class="st0" d="M392.8,652.8c5.5-11.7,17.3-19.3,30.2-19.3h46.1v22.1H423c-4.2,0-8.3,2.5-10.1,6.4l-22.6,49h355.1l-45.6-45.6
		c-6.2-6.2-14.7-9.7-23.5-9.7H491.2v-22.1h185.1c14.7,0,28.8,5.8,39.2,16.3l83.6,83.6H355.6L392.8,652.8z"/>
</g>
<g>
	<g>
		<path class="st1" d="M186.2,584l-0.1,20.8l69.6-47.9L186.7,508l-0.1,20.8L75.8,528l-0.4,55.4L186.2,584L186.2,584z"/>
	</g>
	<g>
		<path class="st1" d="M139.8,629.3l0.1-20.8l-69.6,47.9l68.9,48.9l0.1-20.8l110.8,0.8l0.4-55.4L139.8,629.3L139.8,629.3z"/>
	</g>
</g>
</svg>
