<?xml version="1.0" encoding="iso-8859-1"?>
<!-- Generator: Adobe Illustrator 19.0.0, SVG Export Plug-In . SVG Version: 6.00 Build 0)  -->
<svg version="1.1" id="Capa_1" xmlns="http://www.w3.org/2000/svg" xmlns:xlink="http://www.w3.org/1999/xlink" x="0px" y="0px"
	 viewBox="0 0 512 512" style="enable-background:new 0 0 512 512;" xml:space="preserve">
<g>
	<g>
		<path d="M421,424.58V407c0-19.555-12.541-36.228-30-42.42V347c0-24.813-20.187-45-45-45h-45V167.918
			c26.88-15.584,45-44.674,45-77.918c0-49.626-40.374-90-90-90c-49.626,0-90,40.374-90,90c0,33.244,18.12,62.334,45,77.918V302h-45
			c-24.813,0-45,20.187-45,45v17.58c-17.459,6.192-30,22.865-30,42.42v17.58c-17.459,6.192-30,22.865-30,42.42v30
			c0,8.284,6.716,15,15,15h360c8.284,0,15-6.716,15-15v-30C451,447.445,438.459,430.772,421,424.58z M195.8,90
			c0-33.084,27.116-60.2,60.2-60.2s60.2,27.116,60.2,60.2s-27.116,60.2-60.2,60.2C222.916,150.2,195.8,123.084,195.8,90z
			 M271,178.743V302h-30V178.743c4.88,0.822,9.89,1.257,15,1.257S266.12,179.565,271,178.743z M151,347c0-8.271,6.729-15,15-15h180
			c8.271,0,15,6.729,15,15v15H151V347z M121,407c0-8.271,6.729-15,15-15h240c8.271,0,15,6.729,15,15v15H121V407z M421,482H91v-15
			c0-8.271,6.729-15,15-15h300c8.271,0,15,6.729,15,15V482z"/>
	</g>
</g>
<g>
</g>
<g>
</g>
<g>
</g>
<g>
</g>
<g>
</g>
<g>
</g>
<g>
</g>
<g>
</g>
<g>
</g>
<g>
</g>
<g>
</g>
<g>
</g>
<g>
</g>
<g>
</g>
<g>
</g>
</svg>
