<?xml version="1.0" encoding="utf-8"?>
<!-- Generator: Adobe Illustrator 22.0.0, SVG Export Plug-In . SVG Version: 6.00 Build 0)  -->
<svg version="1.1" id="Layer_1" xmlns="http://www.w3.org/2000/svg" xmlns:xlink="http://www.w3.org/1999/xlink" x="0px" y="0px"
	 viewBox="0 0 512 512" style="enable-background:new 0 0 512 512;" xml:space="preserve">
<style type="text/css">
	.st0{fill:#625D6B;}
	.st1{fill:#DCDBDE;}
	.st2{fill:#CAC9CD;}
	.st3{fill:#E8BE39;}
	.st4{fill:#C19D3A;}
	.st5{fill:#EDEDEE;}
	.st6{fill:#504B5A;}
</style>
<path class="st0" d="M414.9,295.7h-88.3v26.5H35.3c-4.9,0-8.8,4-8.8,8.8v17.7c0,4.9,4,8.8,8.8,8.8h379.6L414.9,295.7L414.9,295.7z"
	/>
<path class="st1" d="M335.4,110.3H8.8c-4.9,0-8.8,4-8.8,8.8v194.2c0,4.9,4,8.8,8.8,8.8h326.6c4.9,0,8.8-4,8.8-8.8V119.2
	C344.3,114.3,340.3,110.3,335.4,110.3z"/>
<g>
	<path class="st2" d="M317.8,304.6H26.5c-4.9,0-8.8-4-8.8-8.8l0,0c0-4.9,4-8.8,8.8-8.8h291.3c4.9,0,8.8,4,8.8,8.8l0,0
		C326.6,300.6,322.7,304.6,317.8,304.6z"/>
	<path class="st2" d="M317.8,145.7H26.5c-4.9,0-8.8-4-8.8-8.8l0,0c0-4.9,4-8.8,8.8-8.8h291.3c4.9,0,8.8,4,8.8,8.8l0,0
		C326.6,141.7,322.7,145.7,317.8,145.7z"/>
</g>
<path class="st3" d="M446.9,154.5h-76.1c-4.9,0-8.8,4-8.8,8.8v132.4c0,4.9,4,8.8,8.8,8.8h39.7v44.1h92.7v-63.1
	c0-10.8-2-21.6-5.9-31.7l-33.9-88.1C460.8,159,454.2,154.5,446.9,154.5z"/>
<rect x="410.5" y="304.6" class="st4" width="92.7" height="44.1"/>
<circle class="st5" cx="101.5" cy="353.1" r="40.5"/>
<path class="st6" d="M101.5,401.7c-26.8,0-48.6-21.8-48.6-48.6s21.8-48.6,48.6-48.6s48.6,21.8,48.6,48.6S128.3,401.7,101.5,401.7z
	 M101.5,322.2c-17,0-30.9,13.9-30.9,30.9S84.5,384,101.5,384s30.9-13.9,30.9-30.9S118.6,322.2,101.5,322.2z"/>
<circle class="st1" cx="101.5" cy="353.1" r="17.7"/>
<circle class="st5" cx="410.5" cy="353.1" r="40.5"/>
<path class="st6" d="M410.5,401.7c-26.8,0-48.6-21.8-48.6-48.6s21.8-48.6,48.6-48.6s48.6,21.8,48.6,48.6
	C459,379.9,437.3,401.7,410.5,401.7z M410.5,322.2c-17,0-30.9,13.9-30.9,30.9s13.9,30.9,30.9,30.9s30.9-13.9,30.9-30.9
	S427.5,322.2,410.5,322.2z"/>
<circle class="st1" cx="410.5" cy="353.1" r="17.7"/>
<path class="st0" d="M494.3,357.5h8.8c4.9,0,8.8-4,8.8-8.8V331c0-4.9-4-8.8-8.8-8.8h-8.8c-4.9,0-8.8,4-8.8,8.8v17.7
	C485.5,353.6,489.5,357.5,494.3,357.5z"/>
<path class="st5" d="M494.3,286.9h8.8v26.5h-8.8c-4.9,0-8.8-4-8.8-8.8v-8.8C485.5,290.8,489.5,286.9,494.3,286.9z"/>
<path class="st0" d="M444.2,172.1h-55.8c-4.9,0-8.8,4-8.8,8.8v44.1c0,4.9,4,8.8,8.8,8.8h82.4c4.5,0,7.6-4.5,6-8.7l-16.1-41.8
	C458.1,176.6,451.5,172.1,444.2,172.1z"/>
</svg>
