<?xml version="1.0" encoding="utf-8"?>
<!-- Generator: Adobe Illustrator 22.0.0, SVG Export Plug-In . SVG Version: 6.00 Build 0)  -->
<svg version="1.1" id="Layer_35" xmlns="http://www.w3.org/2000/svg" xmlns:xlink="http://www.w3.org/1999/xlink" x="0px" y="0px"
	 viewBox="0 0 512 512" style="enable-background:new 0 0 512 512;" xml:space="preserve">
<style type="text/css">
	.st0{fill:#F9BA48;}
	.st1{fill:#505050;}
</style>
<g>
	<path class="st0" d="M432,208H80l-8,32c20.5,20.5,48.3,32,77.3,32h213.5c29,0,56.8-11.5,77.3-32L432,208z"/>
	<path class="st0" d="M440,424h-48c-8.8,0-16-7.2-16-16s7.2-16,16-16h48c8.8,0,16,7.2,16,16S448.8,424,440,424z"/>
	<path class="st0" d="M120,424H72c-8.8,0-16-7.2-16-16s7.2-16,16-16h48c8.8,0,16,7.2,16,16S128.8,424,120,424z"/>
	<path class="st0" d="M107,48h298c-6.7-18.9-24.6-32-45.2-32H152.2C131.6,16,113.7,29.1,107,48L107,48z"/>
</g>
<path class="st1" d="M112.3,150.6L126.6,71l15.7,2.8l-14.3,79.7L112.3,150.6z"/>
<path class="st1" d="M106.6,182.8l2.9-16.4l15.7,2.8l-2.9,16.4L106.6,182.8z"/>
<path class="st1" d="M192,392h16v16h-16V392z"/>
<path class="st1" d="M224,392h96v16h-96V392z"/>
<path class="st1" d="M447.5,236.4l-0.8-4.4H464c22.1,0,40-17.9,40-40c0-13.2-10.8-24-24-24h-25.4c-6.4,0-12.4,2.5-17,7l-1,1
	L414.9,54.2C410.2,27.4,387,8,359.8,8H152.2C125,8,101.8,27.4,97.1,54.2L75.3,176l-1-1c-4.5-4.5-10.6-7-17-7H32
	c-13.2,0-24,10.8-24,24c0,22.1,17.9,40,40,40h17.3l-0.8,4.4l-38.7,44.2C14.3,293.8,8,310.6,8,328v56c0,37,28.1,67.5,64,71.5V480
	c0,13.2,10.8,24,24,24h48c13.2,0,24-10.8,24-24v-27.7l18.2-12.3H200h112h13.6l18.4,12.3V480c0,13.2,10.8,24,24,24h48
	c13.2,0,24-10.8,24-24v-24.5c35.9-4,64-34.5,64-71.5v-56c0-17.4-6.3-34.3-17.8-47.4L447.5,236.4z M424,304c0-13.2,10.8-24,24-24
	s24,10.8,24,24s-10.8,24-24,24c-6.3,0-12.2-2.6-16.7-6.9c-1.1-6.2-3.7-11.9-7.3-16.8C424,304.2,424,304.1,424,304z M416,328
	c0,13.2-10.8,24-24,24c-11.8,0-21.6-8.5-23.6-20c2.4-6.4,4.3-12.9,5.5-19.7c4.6-5.3,11-8.4,18-8.4C405.2,304,416,314.8,416,328
	L416,328z M352.9,328H159.1c-2-5.2-3.7-10.5-4.8-16h203.4C356.6,317.5,354.9,322.8,352.9,328z M143.6,332c-1.9,11.5-11.7,20-23.6,20
	c-13.2,0-24-10.8-24-24s10.8-24,24-24c7,0,13.5,3.1,18,8.4C139.3,319.1,141.2,325.7,143.6,332L143.6,332z M88,304.3
	c-3.6,4.9-6.2,10.6-7.3,16.8c-4.5,4.4-10.4,6.9-16.7,6.9c-13.2,0-24-10.8-24-24s10.8-24,24-24s24,10.8,24,24
	C88,304.1,88,304.2,88,304.3z M64,344c6.3,0,12.4-1.5,17.9-4.3c2.5,8.2,7.6,15.3,14.3,20.3H79.6c-21.4,0-40.5-11.9-50.1-31l-4.8-9.5
	c0.2-1.6,0.6-3.2,1-4.8C30.4,331.6,45.7,344,64,344z M152.7,350.9c1.9,3.1,3.9,6.2,6.1,9.1h-15C147.2,357.4,150.2,354.4,152.7,350.9
	L152.7,350.9z M179.5,360c-4.7-5-8.8-10.3-12.3-16h177.6c-3.5,5.7-7.6,11-12.3,16H312H200H179.5z M359.3,350.9
	c2.5,3.5,5.5,6.6,8.9,9.1h-15C355.4,357,357.4,354,359.3,350.9L359.3,350.9z M430.1,339.7c5.5,2.8,11.6,4.3,17.9,4.3
	c18.3,0,33.6-12.4,38.3-29.2c0.4,1.6,0.7,3.2,1,4.8l-4.8,9.5c-9.5,19.1-28.7,30.9-50.1,30.9h-16.7
	C422.5,355,427.5,347.9,430.1,339.7L430.1,339.7z M449,186.3c1.5-1.5,3.6-2.3,5.7-2.3H480c4.4,0,8,3.6,8,8c0,13.2-10.8,24-24,24
	h-20.2l-3.7-20.8L449,186.3z M112.8,57c3.4-19.1,20-33,39.4-33h207.6c19.4,0,36,13.9,39.4,33l25.5,143h-17.2
	c-3.2-28.8-23.4-52.5-50.4-60.8c6.7-7.1,10.8-16.7,10.8-27.2c0-22.1-17.9-40-40-40s-40,17.9-40,40c0,10.5,4.2,20,10.8,27.2
	c-26.9,8.3-47.2,32-50.4,60.8H87.3L112.8,57z M367.2,200c-3.7-18.2-19.9-32-39.2-32s-35.5,13.8-39.2,32h-24.2
	c3.9-27.1,27.2-48,55.4-48h16c28.2,0,51.5,20.9,55.4,48H367.2z M350.5,200h-45c3.3-9.3,12.1-16,22.5-16S347.2,190.7,350.5,200
	L350.5,200z M328,136c-13.2,0-24-10.8-24-24s10.8-24,24-24s24,10.8,24,24S341.2,136,328,136z M48,216c-13.2,0-24-10.8-24-24
	c0-4.4,3.6-8,8-8h25.4c2.1,0,4.2,0.9,5.7,2.3l8.8,8.8L68.2,216H48z M79.5,243.6l4.9-27.6h343.2l4.9,27.6l18.1,20.7
	c-0.9-0.1-1.7-0.3-2.6-0.3c-18,0-33.1,12-38.1,28.4c-5.4-2.7-11.4-4.4-17.9-4.4c-5.6,0-11.1,1.2-16,3.4c0-0.2,0-0.4,0-0.6V272h-16
	v18.7c0,1.8-0.2,3.5-0.3,5.3H152.3c-0.1-1.8-0.3-3.5-0.3-5.3V272h-16v18.7c0,0.2,0,0.4,0,0.6c-5-2.2-10.4-3.4-16-3.4
	c-6.5,0-12.5,1.7-17.9,4.4C97.1,276,82,264,64,264c-0.9,0-1.7,0.2-2.6,0.3L79.5,243.6z M144,488H96c-4.4,0-8-3.6-8-8v-24h64v24
	C152,484.4,148.4,488,144,488z M157.6,440H80c-30.9,0-56-25.1-56-56v-34.4C37.5,366.1,57.6,376,79.6,376h88.6
	c-5.1,6.7-8.2,15-8.2,24c0,11.7,5.1,22.1,13.2,29.5L157.6,440z M200,424c-13.2,0-24-10.8-24-24s10.8-24,24-24h112
	c13.2,0,24,10.8,24,24s-10.8,24-24,24H200z M416,488h-48c-4.4,0-8-3.6-8-8v-24h64v24C424,484.4,420.4,488,416,488z M432,440h-77.6
	l-15.7-10.5c8.1-7.3,13.3-17.8,13.3-29.5c0-9-3.1-17.3-8.2-24h88.6c22,0,42.1-9.9,55.6-26.4V384C488,414.9,462.9,440,432,440
	L432,440z"/>
</svg>
